<svg version="1.1" id="icons" xmlns="http://www.w3.org/2000/svg" x="0" y="0" viewBox="0 0 64 64" style="enable-background:new 0 0 64 64" xml:space="preserve"><style>.st0{display:none}.st1,.st2,.st3{display:inline;fill:#f1f2f2}.st2,.st3{fill:#d1d3d4}.st3{fill:none;stroke:#414042;stroke-miterlimit:10}.st4{fill:#fff}.st4,.st6{display:inline}.st7{fill:none;stroke:#414042;stroke-miterlimit:10}.st11,.st12,.st8{display:inline;fill:#f5ab35}.st11,.st12{fill:#36d7b7}.st12{fill:none;stroke:#414042;stroke-linecap:round;stroke-miterlimit:10}.st13{fill:#fff}.st14{fill:#e6e7e8}.st15{fill:#bcbec0}.st17{fill:#36d7b7}.st18{fill:none;stroke:#414042;stroke-linecap:round;stroke-miterlimit:10}.st19{fill:#414042}.st20,.st21{display:inline;fill:#e6e7e8}.st21{fill:#bcbec0}.st22{fill:#f1f2f2}.st23{display:inline;fill:#414042}.st25{fill:#f5ab35}.st26,.st28{display:inline}.st26{fill:none;stroke:#414042;stroke-miterlimit:10;stroke-dasharray:1}.st28{fill:#86e7d4}.st30{fill:#d1d3d4}.st31{display:inline;fill:#f9cd86}</style><g id="XMLID_123_"><circle id="XMLID_195_" cx="32" cy="32.6" r="18.3" style="fill:#f7bc5d"/><path id="XMLID_1355_" class="st17" d="M45.4 51.2v-1.8c0-7.4-6.1-13.5-13.5-13.5S18.4 42 18.4 49.4v1.8h27z"/><path id="XMLID_1368_" class="st7" d="M24.9 46.4v4.8"/><path id="XMLID_1367_" class="st7" d="M39.7 46.4v4.8"/><path id="XMLID_193_" class="st13" d="M22.9 31.1h-.5c-.6 0-1.1-.5-1.1-1.1v-1.8c0-.6.5-1.1 1.1-1.1h.5v4z"/><path id="XMLID_192_" class="st13" d="M40.2 31.1h.5c.6 0 1.1-.5 1.1-1.1v-1.8c0-.6-.5-1.1-1.1-1.1h-.5v4z"/><path id="XMLID_191_" class="st18" d="M22.9 31.1h-.5c-.6 0-1.1-.5-1.1-1.1v-1.8c0-.6.5-1.1 1.1-1.1h.5v4z"/><path id="XMLID_190_" class="st18" d="M40.2 31.1h.5c.6 0 1.1-.5 1.1-1.1v-1.8c0-.6-.5-1.1-1.1-1.1h-.5v4z"/><path id="XMLID_189_" class="st13" d="M22.4 23.5v7.7c0 5 4.1 9.1 9.1 9.1s9.1-4.1 9.1-9.1v-7.3c-1.1-6.4-6.8-8.3-9.7-8.2-2.5.1-7.6 2.8-8.5 7.8z"/><path id="XMLID_120_" class="st7" d="M22.7 25.2v6c0 4.8 3.9 8.8 8.8 8.8 4.8 0 8.8-3.9 8.8-8.8v-6"/><path id="XMLID_113_" class="st17" d="M40.3 23.2H22.6l-2.1-7.9c4.6-3.2 17.2-3.5 21.8 0l-2 7.9z"/><path id="XMLID_117_" class="st7" d="M40.3 23.2H22.6l-2.1-7.9c4.6-3.2 17.2-3.5 21.8 0l-2 7.9z"/><path id="XMLID_118_" class="st13" d="M33.4 17.2h-1.1v-1.1h-1.7v1.1h-1.1v1.6h1.1v1.1h1.7v-1.1h1.1z"/><path id="XMLID_122_" class="st19" d="M35.1 45.4h.9v2h-.9z"/><path id="XMLID_121_" class="st13" d="M32.8 47.1h5.5v3h-5.5z"/></g></svg>